# File created by Blade
# Date/Time:  Tue Jan 27 18:55:59 2015
#---------------------------------------------------------
:version 1.10
:name HOM
:units
  mass 1.0
  length 1.000000
  angle deg
:documentation
     Acclaim Skeleton File
:root
   axis xyz
   order TX TY TZ RX RY RZ
   position 0.000000 0.000000 0.000000
   orientation 0 0 0
:bonedata
   begin
      id 1
      name Spine_dum
      direction 0.000000 1.000000 0.000000
      length 5.195262
      axis 0.0 0.0 0.0 xyz
   end
   begin
      id 2
      name LeftUpLeg_dum
      direction 1.000000 0.000000 0.000000
      length 3.351363
      axis 0.0 0.0 0.0 xyz
   end
   begin
      id 3
      name RightUpLeg_dum
      direction -1.000000 0.000000 0.000000
      length 3.351363
      axis 0.0 0.0 0.0 xyz
   end
   begin
      id 4
      name Spine
      direction 0.000000 1.000000 0.000000
      length 0.000000
      axis 0.0 0.0 0.0 xyz
      dof rx ry rz
   end
   begin
      id 5
      name Spine_dum1
      direction 0.000000 1.000000 0.000000
      length 15.653875
      axis 0.0 0.0 0.0 xyz
   end
   begin
      id 6
      name Spine_dum2
      direction 0.000000 1.000000 0.000000
      length 10.329768
      axis 0.0 0.0 0.0 xyz
   end
   begin
      id 7
      name Spine_dum3
      direction 0.000000 1.000000 0.000000
      length 10.329768
      axis 0.0 0.0 0.0 xyz
   end
   begin
      id 8
      name Head
      direction 0.000000 1.000000 0.000000
      length 4.527550
      axis 0.0 0.0 0.0 xyz
      dof rx ry rz
   end
   begin
      id 9
      name LeftShoulder
      direction 1.000000 0.000000 0.000000
      length 6.996006
      axis 0.0 0.0 -90.0 xyz
      dof rx ry rz
   end
   begin
      id 10
      name LeftArm
      direction 1.000000 0.000000 0.000000
      length 10.209302
      axis 0.0 0.0 -90.0 xyz
      dof rx ry rz
   end
   begin
      id 11
      name LeftForeArm
      direction 1.000000 0.000000 0.000000
      length 8.563163
      axis 0.0 0.0 -90.0 xyz
      dof ry rz rx
   end
   begin
      id 12
      name LeftHand
      direction 0.000000 0.000000 0.000000
      length 0.000000
      axis 0.0 0.0 -90.0 xyz
      dof rx ry rz
   end
   begin
      id 13
      name LeftHand_dum1
      direction 0.000000 0.000000 0.000000
      length 0.000000
      axis 0.0 0.0 -90.0 xyz
   end
   begin
      id 14
      name LeftHand_dum2
      direction 1.000000 0.000000 0.000000
      length 3.937000
      axis 0.0 0.0 -90.0 xyz
   end
   begin
      id 15
      name LeftHandThumb1
      direction 0.000000 0.000000 1.000000
      length 3.937000
      axis 0.0 0.0 -90.0 xyz
      dof rx rz ry
   end
   begin
      id 16
      name RightShoulder
      direction -1.000000 0.000000 0.000000
      length 6.996006
      axis 0.0 0.0 90.0 xyz
      dof rx ry rz
   end
   begin
      id 17
      name RightArm
      direction -1.000000 0.000000 0.000000
      length 10.209302
      axis 0.0 0.0 90.0 xyz
      dof rx ry rz
   end
   begin
      id 18
      name RightForeArm
      direction -1.000000 0.000000 0.000000
      length 8.563163
      axis 0.0 0.0 90.0 xyz
      dof ry rz rx
   end
   begin
      id 19
      name RightHand
      direction 0.000000 0.000000 0.000000
      length 0.000000
      axis 0.0 0.0 90.0 xyz
      dof rx ry rz
   end
   begin
      id 20
      name RightHand_dum1
      direction 0.000000 0.000000 0.000000
      length 0.000000
      axis 0.0 0.0 90.0 xyz
   end
   begin
      id 21
      name RightHand_dum2
      direction -1.000000 0.000000 0.000000
      length 3.937000
      axis 0.0 0.0 90.0 xyz
   end
   begin
      id 22
      name RightHandThumb1
      direction 0.000000 0.000000 1.000000
      length 3.937000
      axis 0.0 0.0 90.0 xyz
      dof rx rz ry
   end
   begin
      id 23
      name LeftUpLeg
      direction 0.000000 -1.000000 0.000000
      length 16.346831
      axis 0.0 0.0 0.0 xyz
      dof rx ry rz
   end
   begin
      id 24
      name LeftLeg
      direction 0.000000 -1.000000 0.000000
      length 13.959795
      axis 0.0 0.0 0.0 xyz
      dof rx ry rz
   end
   begin
      id 25
      name LeftFoot
      direction 0.000000 -0.258819 0.965926
      length 5.165550
      axis 15.0 0.0 0.0 xyz
      dof rx ry rz
   end
   begin
      id 26
      name LeftToeBase
      direction 0.000000 0.000000 1.000000
      length 2.952750
      axis 0.0 0.0 0.0 xyz
      dof rx ry rz
   end
   begin
      id 27
      name RightUpLeg
      direction 0.000000 -1.000000 0.000000
      length 16.346831
      axis 0.0 0.0 0.0 xyz
      dof rx ry rz
   end
   begin
      id 28
      name RightLeg
      direction 0.000000 -1.000000 0.000000
      length 13.959795
      axis 0.0 0.0 0.0 xyz
      dof rx ry rz
   end
   begin
      id 29
      name RightFoot
      direction 0.000000 -0.258819 0.965926
      length 5.165550
      axis 15.0 0.0 0.0 xyz
      dof rx ry rz
   end
   begin
      id 30
      name RightToeBase
      direction 0.000000 0.000000 1.000000
      length 2.952750
      axis 0.0 0.0 0.0 xyz
      dof rx ry rz
   end
:hierarchy
   begin
      root Spine_dum LeftUpLeg_dum RightUpLeg_dum
      Spine_dum Spine
      LeftUpLeg_dum LeftUpLeg
      RightUpLeg_dum RightUpLeg
      Spine Spine_dum1 Spine_dum2 Spine_dum3
      Spine_dum1 Head
      Spine_dum2 LeftShoulder
      Spine_dum3 RightShoulder
      LeftShoulder LeftArm
      LeftArm LeftForeArm
      LeftForeArm LeftHand
      LeftHand LeftHand_dum1 LeftHand_dum2
      LeftHand_dum1 LeftHandThumb1
      RightShoulder RightArm
      RightArm RightForeArm
      RightForeArm RightHand
      RightHand RightHand_dum1 RightHand_dum2
      RightHand_dum1 RightHandThumb1
      LeftUpLeg LeftLeg
      LeftLeg LeftFoot
      LeftFoot LeftToeBase
      RightUpLeg RightLeg
      RightLeg RightFoot
      RightFoot RightToeBase
   end

# File created by Blade
# Date/Time:  Tue Jan 27 18:55:50 2015
# Frame Rate: 120.000 fps
#------------------------------------------------------
:FULLY-SPECIFIED
:DEGREES
856
root -2.050722 31.620289 -4.593128 6.559504 42.332682 1.818598
Spine -1.409996 -3.064039 -8.800508
Head 15.589170 7.316889 4.338246
LeftShoulder -14.715950 9.242543 14.122330
LeftArm 30.052767 -16.562108 -68.875749
LeftForeArm -11.634719 -0.000000 74.402671
LeftHand -5.785794 -0.000000 22.845455
LeftHandThumb1 -26.253704 0.000000 33.147579
RightShoulder -6.604429 2.401252 -12.009901
RightArm 8.221217 -34.997688 82.156515
RightForeArm -28.395689 -0.000000 29.681332
RightHand -13.928666 -0.000000 10.545101
RightHandThumb1 -24.326973 -0.000000 -32.862282
LeftUpLeg -9.609798 -22.345082 -5.037394
LeftLeg 19.523721 -0.000000 -0.000000
LeftFoot -22.701057 11.266022 -19.586204
LeftToeBase 8.799827 -0.000000 -0.000000
RightUpLeg -63.342295 -22.172725 36.612391
RightLeg 89.867017 -0.000000 -0.000000
RightFoot -6.334064 1.892289 35.230509
RightToeBase 8.825664 -0.000000 -0.000000
857
root -2.068518 31.638479 -4.579431 6.255711 42.444384 1.358883
Spine -1.352561 -3.160842 -8.432825
Head 15.473020 7.208087 4.449665
LeftShoulder -14.663913 9.262376 14.206787
LeftArm 29.886386 -16.505699 -68.849614
LeftForeArm -11.820800 0.000000 74.432119
LeftHand -5.609435 -0.000000 22.867722
LeftHandThumb1 -26.253704 0.000000 33.147579
RightShoulder -6.621333 2.388596 -12.022353
RightArm 8.284632 -34.829593 82.151357
RightForeArm -28.479070 -0.000000 29.708779
RightHand -14.013669 -0.000000 10.501119
RightHandThumb1 -24.326973 -0.000000 -32.862282
LeftUpLeg -9.692325 -22.560851 -4.637563
LeftLeg 19.669164 -0.000000 -0.000000
LeftFoot -22.788545 11.380602 -19.708905
LeftToeBase 8.754881 -0.000000 -0.000000
RightUpLeg -62.667825 -21.169876 35.135418
RightLeg 89.288789 -0.000000 -0.000000
RightFoot -6.684942 1.180153 34.928791
RightToeBase 9.186692 -0.000000 -0.000000
858
root -2.089619 31.657674 -4.569933 6.011313 42.586121 0.940436
Spine -1.307904 -3.273193 -8.105630
Head 15.334581 7.031277 4.597505
LeftShoulder -14.609769 9.307540 14.328286
LeftArm 29.800369 -16.459302 -68.894458
LeftForeArm -11.920025 -0.000000 74.412700
LeftHand -5.558142 -0.000000 22.857676
LeftHandThumb1 -26.253704 0.000000 33.147579
RightShoulder -6.706950 2.307694 -12.006875
RightArm 8.424234 -34.669722 82.070466
RightForeArm -28.428465 0.000000 29.782651
RightHand -14.039252 -0.000000 10.450589
RightHandThumb1 -24.326973 -0.000000 -32.862282
LeftUpLeg -9.823382 -22.708058 -4.252308
LeftLeg 19.814244 -0.000000 -0.000000
LeftFoot -22.800639 11.411050 -19.774693
LeftToeBase 8.682401 -0.000000 -0.000000
RightUpLeg -62.024454 -20.016170 33.514857
RightLeg 88.702386 -0.000000 -0.000000
RightFoot -7.133539 0.530168 34.945486
RightToeBase 9.663816 -0.000000 -0.000000
859
root -2.113601 31.678758 -4.557954 5.705795 42.771036 0.477400
Spine -1.216985 -3.421486 -7.758599
Head 15.200656 6.842251 4.777858
LeftShoulder -14.533730 9.272958 14.462263
LeftArm 29.634847 -16.386843 -68.853994
LeftForeArm -12.065616 -0.000000 74.398088
LeftHand -5.478554 -0.000000 22.845328
LeftHandThumb1 -26.253704 0.000000 33.147579
RightShoulder -6.792013 2.218083 -11.971656
RightArm 8.499585 -34.530421 81.988903
RightForeArm -28.419982 0.000000 29.925693
RightHand -13.996521 -0.000000 10.253053
RightHandThumb1 -24.326973 -0.000000 -32.862282
LeftUpLeg -9.924900 -22.843320 -3.836258
LeftLeg 19.951788 -0.000000 -0.000000
LeftFoot -22.799963 11.402140 -19.815713
LeftToeBase 8.616096 -0.000000 -0.000000
RightUpLeg -61.340369 -18.801866 31.857360
RightLeg 88.050262 -0.000000 -0.000000
RightFoot -7.644618 -0.132723 34.709945
RightToeBase 9.721006 -0.000000 -0.000000
860
root -2.137672 31.698491 -4.549708 5.461289 42.996312 0.075078
Spine -1.139398 -3.584315 -7.466342
Head 15.074655 6.626554 5.015675
LeftShoulder -14.435829 9.267427 14.640466
LeftArm 29.515783 -16.272213 -68.787426
LeftForeArm -12.197431 -0.000000 74.341329
LeftHand -5.491238 -0.000000 22.934385
LeftHandThumb1 -26.253704 0.000000 33.147579
RightShoulder -6.907194 2.166599 -11.897636
RightArm 8.500041 -34.178331 81.931729
RightForeArm -28.133217 -0.000000 30.161395
RightHand -14.277463 -0.000000 10.778871
RightHandThumb1 -24.326973 -0.000000 -32.862282
LeftUpLeg -10.046816 -22.969619 -3.456204
LeftLeg 20.067135 -0.000000 -0.000000
LeftFoot -22.777127 11.331222 -19.870345
LeftToeBase 8.640402 -0.000000 -0.000000
RightUpLeg -60.747121 -17.548727 30.081562
RightLeg 87.435492 -0.000000 -0.000000
RightFoot -7.934036 -0.685055 34.536964
RightToeBase 9.125093 -0.000000 -0.000000
861
root -2.165136 31.718915 -4.536445 5.144438 43.265460 -0.370024
Spine -1.009258 -3.770173 -7.158759
Head 14.975282 6.338617 5.282359
LeftShoulder -14.285097 9.215586 14.797771
LeftArm 29.339712 -16.177581 -68.640904
LeftForeArm -12.089284 -0.000000 74.327330
LeftHand -5.597789 0.000000 23.108701
LeftHandThumb1 -26.253704 0.000000 33.147579
RightShoulder -7.048854 2.126180 -11.830131
RightArm 8.412786 -33.931930 81.941781
RightForeArm -28.364730 -0.000000 30.316602
RightHand -14.192706 -0.000000 10.405220
RightHandThumb1 -24.326973 -0.000000 -32.862282
LeftUpLeg -10.121075 -23.062733 -3.054870
LeftLeg 20.175006 -0.000000 -0.000000
LeftFoot -22.736226 11.228142 -19.868638
LeftToeBase 8.607392 -0.000000 -0.000000
RightUpLeg -60.135512 -16.250457 28.270231
RightLeg 86.793319 -0.000000 -0.000000
RightFoot -8.131230 -1.197610 34.627879
RightToeBase 8.583979 -0.000000 -0.000000
862
root -2.193959 31.739422 -4.527803 4.885378 43.586611 -0.747582
Spine -0.883845 -4.028992 -6.903074
Head 14.926406 6.063687 5.540023
LeftShoulder -14.134308 9.161849 15.018211
LeftArm 29.168969 -16.073400 -68.540292
LeftForeArm -12.272438 -0.000000 74.224360
LeftHand -5.494583 -0.000000 23.335458
LeftHandThumb1 -26.253704 0.000000 33.147579
RightShoulder -7.187000 2.059253 -11.754438
RightArm 8.371712 -33.641141 81.920120
RightForeArm -27.912459 0.000000 30.544041
RightHand -14.367211 -0.000000 10.415713
RightHandThumb1 -24.326973 -0.000000 -32.862282
LeftUpLeg -10.232666 -23.120438 -2.679024
LeftLeg 20.311923 -0.000000 -0.000000
LeftFoot -22.675902 10.933609 -19.974162
LeftToeBase 8.654780 -0.000000 -0.000000
RightUpLeg -59.605677 -14.918846 26.354684
RightLeg 86.215557 -0.000000 -0.000000
RightFoot -8.522385 -1.890950 34.118611
RightToeBase 8.941289 -0.000000 -0.000000
863
root -2.223112 31.757359 -4.511479 4.483834 43.941343 -1.260173
Spine -0.713760 -4.332065 -6.539457
Head 14.891953 5.810451 5.804663
LeftShoulder -14.032068 9.169098 15.214214
LeftArm 29.051800 -15.937137 -68.444321
LeftForeArm -12.560775 0.000000 74.154793
LeftHand -5.434946 -0.000000 23.664611
LeftHandThumb1 -26.253704 0.000000 33.147579
RightShoulder -7.319373 1.964085 -11.687172
RightArm 8.328476 -33.349744 81.880094
RightForeArm -27.767029 -0.000000 30.792064
RightHand -14.467146 -0.000000 10.527524
RightHandThumb1 -24.326973 -0.000000 -32.862282
LeftUpLeg -10.266242 -23.291047 -2.255731
LeftLeg 20.418432 -0.000000 -0.000000
LeftFoot -22.711215 10.901773 -19.948198
LeftToeBase 8.676618 -0.000000 -0.000000
RightUpLeg -59.041646 -13.601603 24.569230
RightLeg 85.595267 -0.000000 -0.000000
RightFoot -8.969250 -2.712490 33.423009
RightToeBase 8.817902 -0.000000 -0.000000
864
root -2.252258 31.776873 -4.494898 4.134677 44.316655 -1.710323
Spine -0.565385 -4.645854 -6.244184
Head 14.890693 5.514840 6.089970
LeftShoulder -13.877979 9.128126 15.423379
LeftArm 28.878568 -15.826329 -68.284473
LeftForeArm -12.641767 -0.000000 74.055883
LeftHand -5.410313 0.000000 23.834696
LeftHandThumb1 -26.253704 0.000000 33.147579
RightShoulder -7.504304 1.818572 -11.581751
RightArm 8.343588 -33.174983 81.787519
RightForeArm -27.629326 -0.000000 30.970468
RightHand -14.433695 -0.000000 10.250379
RightHandThumb1 -24.326973 -0.000000 -32.862282
LeftUpLeg -10.315784 -23.356184 -1.863121
LeftLeg 20.498663 -0.000000 -0.000000
LeftFoot -22.628543 10.766359 -19.785690
LeftToeBase 8.663351 -0.000000 -0.000000
RightUpLeg -58.525878 -12.244738 22.723074
RightLeg 85.040957 -0.000000 -0.000000
RightFoot -9.455808 -3.535283 33.044434
RightToeBase 8.698968 -0.000000 -0.000000
865
root -2.278419 31.796462 -4.478626 3.762675 44.725796 -2.155704
Spine -0.399125 -4.962162 -5.947945
Head 14.935803 5.153545 6.367645
LeftShoulder -13.708461 9.083374 15.618510
LeftArm 28.770785 -15.792585 -68.266919
LeftForeArm -12.716956 -0.000000 73.952038
LeftHand -5.440510 -0.000000 23.820761
LeftHandThumb1 -26.253704 0.000000 33.147579
RightShoulder -7.709353 1.699161 -11.494237
RightArm 8.247448 -32.976893 81.758298
RightForeArm -27.772553 -0.000000 31.146722
RightHand -14.250037 -0.000000 9.963501
RightHandThumb1 -24.326973 -0.000000 -32.862282
LeftUpLeg -10.349585 -23.374570 -1.477661
LeftLeg 20.598166 -0.000000 -0.000000
LeftFoot -22.530952 10.406192 -19.756106
LeftToeBase 8.742526 -0.000000 -0.000000
RightUpLeg -58.035651 -10.871057 20.789217
RightLeg 84.534917 -0.000000 -0.000000
RightFoot -9.687800 -4.174793 32.721308
RightToeBase 8.143529 -0.000000 -0.000000
866
root -2.306426 31.816824 -4.455778 3.329647 45.177228 -2.661683
Spine -0.228968 -5.336420 -5.626489
Head 15.046897 4.759232 6.679717
LeftShoulder -13.562071 9.046624 15.835778
LeftArm 28.665911 -15.698971 -68.203732
LeftForeArm -12.769029 -0.000000 73.818280
LeftHand -5.517177 0.000000 23.982753
LeftHandThumb1 -26.253704 0.000000 33.147579
RightShoulder -7.925324 1.491603 -11.347475
RightArm 8.308403 -32.750789 81.607881
RightForeArm -27.409432 -0.000000 31.392018
RightHand -14.456513 0.000000 10.218409
RightHandThumb1 -24.326973 -0.000000 -32.862282
LeftUpLeg -10.368706 -23.495050 -1.050728
LeftLeg 20.699472 -0.000000 -0.000000
LeftFoot -22.475358 10.168287 -19.742586
LeftToeBase 8.834164 -0.000000 -0.000000
RightUpLeg -57.550661 -9.532517 18.936352
RightLeg 84.098139 -0.000000 -0.000000
RightFoot -10.008406 -4.864841 32.173362
RightToeBase 7.886006 -0.000000 -0.000000
867
root -2.332371 31.836444 -4.433822 2.896604 45.660216 -3.158952
Spine -0.066969 -5.763633 -5.303568
Head 15.186107 4.406785 6.945578
LeftShoulder -13.409851 8.968532 16.008985
LeftArm 28.464301 -15.610580 -68.070741
LeftForeArm -12.930602 -0.000000 73.750836
LeftHand -5.471713 0.000000 24.072356
LeftHandThumb1 -26.253704 0.000000 33.147579
RightShoulder -8.167997 1.410172 -11.251915
RightArm 8.229699 -32.710450 81.563722
RightForeArm -27.386721 -0.000000 31.486077
RightHand -14.407161 0.000000 9.966486
RightHandThumb1 -24.326973 -0.000000 -32.862282
LeftUpLeg -10.399774 -23.659504 -0.638574
LeftLeg 20.824651 -0.000000 -0.000000
LeftFoot -22.424043 9.932651 -19.756561
LeftToeBase 8.861130 -0.000000 -0.000000
RightUpLeg -57.097307 -8.179126 17.051946
RightLeg 83.720619 -0.000000 -0.000000
RightFoot -10.225760 -5.434797 31.535367
RightToeBase 7.567347 -0.000000 -0.000000
